<svg width="1300" height="600" viewBox="0 0 1300 600" fill="none" xmlns="http://www.w3.org/2000/svg">
<rect width="1300" height="600" fill="white"/>
<path d="M492.38 290.407C484.107 290.407 478.073 289.593 474.275 287.966C470.614 286.338 468.308 283.219 467.359 278.608L444.779 159.404C444.373 157.099 444.169 155.2 444.169 153.709C444.169 151.267 445.322 149.572 447.627 148.623C450.068 147.674 453.798 147.199 458.815 147.199H466.952C470.343 147.199 473.462 147.674 476.31 148.623C479.157 149.437 480.785 151.403 481.192 154.522L495.838 257.656H496.652L510.688 154.522C511.094 151.403 512.654 149.437 515.366 148.623C518.214 147.674 521.265 147.199 524.52 147.199H534.895C538.963 147.199 542.082 147.674 544.252 148.623C546.422 149.572 547.507 151.267 547.507 153.709C547.507 155.2 547.303 157.099 546.896 159.404L524.52 278.608C523.571 283.219 521.198 286.338 517.4 287.966C513.739 289.593 507.772 290.407 499.499 290.407H492.38ZM553.142 290.407C549.074 290.407 545.955 289.932 543.785 288.983C541.615 288.034 540.53 286.338 540.53 283.897C540.53 282.27 540.733 280.371 541.14 278.202L562.703 158.997C563.516 154.251 565.686 151.132 569.212 149.64C572.874 148.013 578.637 147.199 586.503 147.199H596.471C604.336 147.199 610.032 148.013 613.558 149.64C617.219 151.132 619.457 154.251 620.271 158.997L642.037 278.202C642.443 280.371 642.647 282.27 642.647 283.897C642.647 286.338 641.494 288.034 639.189 288.983C636.883 289.932 633.154 290.407 628.001 290.407H618.847C615.456 290.407 612.337 290 609.489 289.186C606.642 288.237 605.014 286.203 604.607 283.084L602.573 265.386H580.4L578.366 283.084C577.959 286.203 576.332 288.237 573.484 289.186C570.772 290 567.788 290.407 564.534 290.407H553.142ZM589.147 191.341L584.062 234.67H598.912L593.623 191.341C593.487 189.443 593.216 187.341 592.809 185.035C592.402 182.73 592.063 180.357 591.792 177.916H590.775C590.639 180.357 590.368 182.73 589.961 185.035C589.69 187.341 589.419 189.443 589.147 191.341ZM674.671 290.407C668.976 290.407 664.839 289.661 662.263 288.169C659.686 286.542 658.398 284.372 658.398 281.66V234.059L629.309 159.404C628.631 157.913 628.291 156.353 628.291 154.726C628.291 152.149 629.512 150.25 631.953 149.03C634.53 147.809 638.53 147.199 643.955 147.199H650.871C655.482 147.199 658.94 147.945 661.246 149.437C663.551 150.928 665.111 153.302 665.924 156.556L677.316 200.292L689.724 152.895C690.402 150.318 691.962 148.759 694.403 148.216C696.844 147.538 699.76 147.199 703.15 147.199H709.253C714.813 147.199 718.813 147.809 721.254 149.03C723.696 150.25 724.916 152.149 724.916 154.726C724.916 156.353 724.577 157.913 723.899 159.404L694.81 234.67V281.66C694.81 284.372 693.522 286.542 690.945 288.169C688.368 289.661 684.232 290.407 678.536 290.407H674.671ZM723.189 290.407C719.12 290.407 716.001 289.932 713.831 288.983C711.661 288.034 710.577 286.338 710.577 283.897C710.577 282.27 710.78 280.371 711.187 278.202L732.749 158.997C733.563 154.251 735.733 151.132 739.259 149.64C742.92 148.013 748.684 147.199 756.549 147.199H766.517C774.383 147.199 780.078 148.013 783.604 149.64C787.266 151.132 789.504 154.251 790.317 158.997L812.083 278.202C812.49 280.371 812.693 282.27 812.693 283.897C812.693 286.338 811.541 288.034 809.235 288.983C806.93 289.932 803.2 290.407 798.047 290.407H788.893C785.503 290.407 782.384 290 779.536 289.186C776.688 288.237 775.061 286.203 774.654 283.084L772.62 265.386H750.447L748.413 283.084C748.006 286.203 746.378 288.237 743.531 289.186C740.818 290 737.835 290.407 734.58 290.407H723.189ZM759.194 191.341L754.108 234.67H768.958L763.669 191.341C763.534 189.443 763.262 187.341 762.855 185.035C762.449 182.73 762.11 180.357 761.838 177.916H760.821C760.686 180.357 760.414 182.73 760.008 185.035C759.736 187.341 759.465 189.443 759.194 191.341ZM830.845 290C822.709 290 818.64 287.288 818.64 281.863V155.946C818.64 153.234 819.929 151.132 822.505 149.64C825.082 148.013 829.218 147.199 834.914 147.199H838.779C844.475 147.199 848.611 148.013 851.187 149.64C853.764 151.132 855.052 153.234 855.052 155.946V255.215H879.259C884.684 255.215 887.396 259.284 887.396 267.42V277.795C887.396 285.932 884.684 290 879.259 290H830.845ZM901.578 290.407C897.51 290.407 894.391 289.932 892.221 288.983C890.051 288.034 888.966 286.338 888.966 283.897C888.966 282.27 889.17 280.371 889.577 278.202L911.139 158.997C911.953 154.251 914.123 151.132 917.649 149.64C921.31 148.013 927.074 147.199 934.939 147.199H944.907C952.773 147.199 958.468 148.013 961.994 149.64C965.656 151.132 967.893 154.251 968.707 158.997L990.473 278.202C990.88 280.371 991.083 282.27 991.083 283.897C991.083 286.338 989.931 288.034 987.625 288.983C985.32 289.932 981.59 290.407 976.437 290.407H967.283C963.893 290.407 960.774 290 957.926 289.186C955.078 288.237 953.451 286.203 953.044 283.084L951.01 265.386H928.837L926.803 283.084C926.396 286.203 924.768 288.237 921.92 289.186C919.208 290 916.225 290.407 912.97 290.407H901.578ZM937.584 191.341L932.498 234.67H947.348L942.059 191.341C941.923 189.443 941.652 187.341 941.245 185.035C940.839 182.73 940.5 180.357 940.228 177.916H939.211C939.076 180.357 938.804 182.73 938.398 185.035C938.126 187.341 937.855 189.443 937.584 191.341ZM1008.63 290C1000.9 290 997.03 287.288 997.03 281.863V155.743C997.03 150.318 1000.9 147.606 1008.63 147.606H1044.43C1063.01 147.606 1076.97 153.641 1086.33 165.71C1095.82 177.644 1100.57 195.342 1100.57 218.803C1100.57 242.128 1095.82 259.826 1086.33 271.896C1076.97 283.965 1063.01 290 1044.43 290H1008.63ZM1033.44 255.215H1044.43C1050.8 255.215 1055.41 252.435 1058.26 246.875C1061.11 241.179 1062.53 231.822 1062.53 218.803C1062.53 205.784 1061.11 196.495 1058.26 190.934C1055.41 185.239 1050.8 182.391 1044.43 182.391H1033.44V255.215ZM1115.13 290.407C1111.06 290.407 1107.94 289.932 1105.77 288.983C1103.6 288.034 1102.52 286.338 1102.52 283.897C1102.52 282.27 1102.72 280.371 1103.13 278.202L1124.69 158.997C1125.5 154.251 1127.67 151.132 1131.2 149.64C1134.86 148.013 1140.63 147.199 1148.49 147.199H1158.46C1166.32 147.199 1172.02 148.013 1175.55 149.64C1179.21 151.132 1181.44 154.251 1182.26 158.997L1204.02 278.202C1204.43 280.371 1204.63 282.27 1204.63 283.897C1204.63 286.338 1203.48 288.034 1201.18 288.983C1198.87 289.932 1195.14 290.407 1189.99 290.407H1180.83C1177.44 290.407 1174.33 290 1171.48 289.186C1168.63 288.237 1167 286.203 1166.6 283.084L1164.56 265.386H1142.39L1140.35 283.084C1139.95 286.203 1138.32 288.237 1135.47 289.186C1132.76 290 1129.78 290.407 1126.52 290.407H1115.13ZM1151.14 191.341L1146.05 234.67H1160.9L1155.61 191.341C1155.47 189.443 1155.2 187.341 1154.8 185.035C1154.39 182.73 1154.05 180.357 1153.78 177.916H1152.76C1152.63 180.357 1152.36 182.73 1151.95 185.035C1151.68 187.341 1151.41 189.443 1151.14 191.341Z" fill="#2A210D"/>
<path d="M474.664 452.057C466.153 452.057 461.898 449.071 461.898 443.099V304.244C461.898 298.272 466.153 295.286 474.664 295.286H510.273C526.548 295.286 538.492 299.093 546.107 306.708C553.721 314.173 557.529 324.848 557.529 338.734C557.529 346.498 555.737 352.918 552.154 357.994C548.72 363.071 544.166 367.102 538.492 370.088L538.716 370.984C545.733 373.224 551.258 377.553 555.289 383.974C559.32 390.244 561.336 398.232 561.336 407.937C561.336 416.298 559.47 423.838 555.737 430.557C552.154 437.276 546.555 442.576 538.94 446.458C531.475 450.191 521.919 452.057 510.273 452.057H474.664ZM499.747 355.979H510.273C517.141 355.979 520.575 352.022 520.575 344.109C520.575 339.928 519.754 336.942 518.112 335.151C516.469 333.359 513.857 332.463 510.273 332.463H499.747V355.979ZM499.747 414.88H510.273C514.304 414.88 517.216 413.835 519.008 411.745C520.949 409.505 521.919 405.996 521.919 401.218C521.919 396.441 520.949 393.007 519.008 390.916C517.216 388.677 514.304 387.557 510.273 387.557H499.747V414.88ZM586.561 452.505C580.29 452.505 575.736 451.684 572.9 450.042C570.063 448.25 568.644 445.861 568.644 442.875V304.468C568.644 301.482 570.063 299.168 572.9 297.525C575.736 295.734 580.29 294.838 586.561 294.838H590.816C597.087 294.838 601.641 295.734 604.478 297.525C607.315 299.168 608.733 301.482 608.733 304.468V442.875C608.733 445.861 607.315 448.25 604.478 450.042C601.641 451.684 597.087 452.505 590.816 452.505H586.561ZM682.837 453.849C662.532 453.849 647.078 447.055 636.478 433.469C626.026 419.882 620.801 399.949 620.801 373.672C620.801 347.394 626.026 327.461 636.478 313.874C647.078 300.288 662.532 293.494 682.837 293.494C703.292 293.494 718.671 300.288 728.973 313.874C739.424 327.461 744.65 347.394 744.65 373.672C744.65 399.949 739.424 419.882 728.973 433.469C718.671 447.055 703.292 453.849 682.837 453.849ZM682.837 415.552C689.855 415.552 694.931 412.342 698.067 405.922C701.202 399.352 702.77 388.602 702.77 373.672C702.77 358.592 701.202 347.842 698.067 341.421C694.931 335.001 689.855 331.791 682.837 331.791C675.671 331.791 670.52 335.001 667.384 341.421C664.249 347.842 662.681 358.592 662.681 373.672C662.681 388.602 664.249 399.352 667.384 405.922C670.52 412.342 675.671 415.552 682.837 415.552Z" fill="#44520C"/>
<path d="M768.61 452.057C760.1 452.057 755.845 449.071 755.845 443.099V304.244C755.845 298.272 760.1 295.286 768.61 295.286H804.22C820.494 295.286 832.439 299.093 840.053 306.708C847.668 314.173 851.475 324.848 851.475 338.734C851.475 346.498 849.683 352.918 846.1 357.994C842.666 363.071 838.112 367.102 832.439 370.088L832.663 370.984C839.68 373.224 845.204 377.553 849.236 383.974C853.267 390.244 855.282 398.232 855.282 407.937C855.282 416.298 853.416 423.838 849.683 430.557C846.1 437.276 840.501 442.576 832.887 446.458C825.421 450.191 815.866 452.057 804.22 452.057H768.61ZM793.694 355.979H804.22C811.088 355.979 814.522 352.022 814.522 344.109C814.522 339.928 813.701 336.942 812.058 335.151C810.416 333.359 807.803 332.463 804.22 332.463H793.694V355.979ZM793.694 414.88H804.22C808.251 414.88 811.162 413.835 812.954 411.745C814.895 409.505 815.866 405.996 815.866 401.218C815.866 396.441 814.895 393.007 812.954 390.916C811.162 388.677 808.251 387.557 804.22 387.557H793.694V414.88ZM875.357 452.057C866.398 452.057 861.919 449.071 861.919 443.099V304.468C861.919 301.482 863.337 299.168 866.174 297.525C869.011 295.734 873.565 294.838 879.836 294.838H884.091C890.362 294.838 894.916 295.734 897.752 297.525C900.589 299.168 902.008 301.482 902.008 304.468V413.76H928.659C934.631 413.76 937.617 418.239 937.617 427.198V438.62C937.617 447.578 934.631 452.057 928.659 452.057H875.357ZM967.117 452.505C960.846 452.505 956.292 451.684 953.455 450.042C950.618 448.25 949.2 445.861 949.2 442.875V304.468C949.2 301.482 950.618 299.168 953.455 297.525C956.292 295.734 960.846 294.838 967.117 294.838H971.372C977.643 294.838 982.197 295.734 985.034 297.525C987.87 299.168 989.289 301.482 989.289 304.468V442.875C989.289 445.861 987.87 448.25 985.034 450.042C982.197 451.684 977.643 452.505 971.372 452.505H967.117ZM1045.48 452.505C1039.21 452.505 1034.65 451.684 1031.81 450.042C1028.98 448.25 1027.56 445.861 1027.56 442.875V333.583H1006.73C1000.76 333.583 997.773 329.104 997.773 320.145V308.723C997.773 299.765 1000.76 295.286 1006.73 295.286H1087.13C1093.1 295.286 1096.09 299.765 1096.09 308.723V320.145C1096.09 329.104 1093.1 333.583 1087.13 333.583H1066.3V442.875C1066.3 445.861 1064.89 448.25 1062.05 450.042C1059.21 451.684 1054.66 452.505 1048.39 452.505H1045.48ZM1107.39 452.057C1104.4 452.057 1102.16 450.564 1100.67 447.578C1099.33 444.592 1098.43 441.307 1097.98 437.724C1097.54 433.991 1097.31 431.154 1097.31 429.213C1097.31 427.571 1097.54 426.078 1097.98 424.734C1098.43 423.39 1099.4 421.3 1100.9 418.463L1146.14 333.583H1110.75C1104.78 333.583 1101.79 329.104 1101.79 320.145V308.723C1101.79 299.765 1104.78 295.286 1110.75 295.286H1186C1188.99 295.286 1191.15 296.779 1192.5 299.765C1193.99 302.751 1194.96 306.036 1195.41 309.619C1195.85 313.203 1196.08 316.039 1196.08 318.13C1196.08 319.772 1195.85 321.265 1195.41 322.609C1195.11 323.803 1194.14 325.894 1192.5 328.88L1147.26 413.76H1187.12C1193.09 413.76 1196.08 418.239 1196.08 427.198V438.62C1196.08 447.578 1193.09 452.057 1187.12 452.057H1107.39Z" fill="#729947"/>
<g filter="url(#filter0_d_5_66)">
<path d="M114 242.991C114 188.91 157.842 145.068 211.923 145.068H404.208C409.616 145.068 414 149.452 414 154.861V435.276C414 440.684 409.616 445.068 404.208 445.068H123.792C118.384 445.068 114 440.684 114 435.276V242.991Z" fill="url(#paint0_linear_5_66)"/>
<path d="M211.923 147.516H404.208C408.264 147.517 411.552 150.804 411.552 154.86V435.276C411.552 439.332 408.264 442.62 404.208 442.62H123.792C119.736 442.62 116.448 439.332 116.448 435.276V242.991C116.448 190.262 159.194 147.517 211.923 147.516Z" stroke="white" stroke-width="4.89615" stroke-linejoin="round"/>
</g>
<path d="M129.989 403.649L144.008 440.291H400.816L384.567 399.826L368.636 373.062L352.386 358.087H342.19L331.676 340.244L308.098 318.578L283.883 302.328L272.412 299.461L261.898 295V299.461H253.614L242.143 295L224.619 299.461H203.909L181.924 307.426L174.277 299.461H152.93L129.989 295H119.793L111.509 299.461L99.7202 295V297.868H95.8967L99.7202 346.935L109.279 373.062L129.989 403.649Z" fill="#CBA597"/>
<path d="M129.989 403.649L144.008 440.291H400.816L384.567 399.826L368.636 373.062L352.386 358.087H342.19L331.676 340.244L308.098 318.578L283.883 302.328L272.412 299.461L261.898 295V299.461H253.614L242.143 295L224.619 299.461H203.909L181.924 307.426L174.277 299.461H152.93L129.989 295H119.793L111.509 299.461L99.7202 295V297.868H95.8967L99.7202 346.935L109.279 373.062L129.989 403.649Z" fill="#CBA597"/>
<path d="M126.166 323.039L101.632 310.931L144.327 440.291H269.226L247.242 384.851H187.022L151.018 374.655L126.166 323.039Z" fill="#7A4635" fill-opacity="0.7"/>
<path d="M196.581 361.273L201.042 383.258H244.693L209.644 332.597L180.969 340.244L201.042 353.626L196.581 361.273Z" fill="#987368" fill-opacity="0.7"/>
<path d="M268.908 424.678L277.51 439.972H350.793L324.985 427.546L307.779 424.678L288.344 413.208L268.908 424.678Z" fill="#987368" fill-opacity="0.5"/>
<path d="M270.182 352.67L235.771 320.171L260.624 331.96L276.873 347.891L286.113 382.939L294.716 375.611L319.25 425.634L303.956 418.306L299.177 402.056L282.608 382.939L270.182 352.67Z" fill="#7A4635" fill-opacity="0.7"/>
<defs>
<filter id="filter0_d_5_66" x="111.552" y="145.068" width="304.896" height="304.896" filterUnits="userSpaceOnUse" color-interpolation-filters="sRGB">
<feFlood flood-opacity="0" result="BackgroundImageFix"/>
<feColorMatrix in="SourceAlpha" type="matrix" values="0 0 0 0 0 0 0 0 0 0 0 0 0 0 0 0 0 0 127 0" result="hardAlpha"/>
<feOffset dy="2.44808"/>
<feGaussianBlur stdDeviation="1.22404"/>
<feComposite in2="hardAlpha" operator="out"/>
<feColorMatrix type="matrix" values="0 0 0 0 0 0 0 0 0 0 0 0 0 0 0 0 0 0 0.25 0"/>
<feBlend mode="normal" in2="BackgroundImageFix" result="effect1_dropShadow_5_66"/>
<feBlend mode="normal" in="SourceGraphic" in2="effect1_dropShadow_5_66" result="shape"/>
</filter>
<linearGradient id="paint0_linear_5_66" x1="264" y1="145.068" x2="264" y2="445.068" gradientUnits="userSpaceOnUse">
<stop stop-color="#7CAFF0"/>
<stop offset="1" stop-color="#E5F1FF"/>
</linearGradient>
</defs>
</svg>
