<svg width="600" height="600" viewBox="0 0 600 600" fill="none" xmlns="http://www.w3.org/2000/svg">
<rect width="600" height="600" fill="white"/>
<g filter="url(#filter0_d_4_7)">
<path d="M44 204C44 115.634 115.634 44 204 44H540C548.837 44 556 51.1634 556 60V540C556 548.837 548.837 556 540 556H60C51.1634 556 44 548.837 44 540V204Z" fill="url(#paint0_linear_4_7)"/>
<path d="M204 48H540C546.627 48 552 53.3726 552 60V540C552 546.627 546.627 552 540 552H60C53.3726 552 48 546.627 48 540V204C48 117.844 117.844 48 204 48Z" stroke="white" stroke-width="8" stroke-linejoin="round"/>
</g>
<path d="M123.643 260.216C119.248 260.216 116.041 259.784 114.024 258.919C112.078 258.054 110.853 256.397 110.349 253.947L98.3515 190.609C98.1353 189.384 98.0272 188.375 98.0272 187.583C98.0272 186.286 98.6397 185.385 99.8647 184.881C101.162 184.376 103.143 184.124 105.809 184.124H110.133C111.934 184.124 113.592 184.376 115.105 184.881C116.618 185.313 117.483 186.358 117.699 188.015L125.481 242.814H125.913L133.371 188.015C133.587 186.358 134.416 185.313 135.857 184.881C137.37 184.376 138.992 184.124 140.721 184.124H146.233C148.395 184.124 150.052 184.376 151.205 184.881C152.358 185.385 152.935 186.286 152.935 187.583C152.935 188.375 152.827 189.384 152.61 190.609L140.721 253.947C140.217 256.397 138.956 258.054 136.938 258.919C134.992 259.784 131.822 260.216 127.426 260.216H123.643ZM155.929 260.216C153.767 260.216 152.11 259.964 150.957 259.46C149.804 258.955 149.228 258.054 149.228 256.757C149.228 255.893 149.336 254.884 149.552 253.731L161.009 190.393C161.441 187.871 162.594 186.214 164.468 185.421C166.413 184.556 169.476 184.124 173.655 184.124H178.951C183.13 184.124 186.157 184.556 188.03 185.421C189.976 186.214 191.165 187.871 191.597 190.393L203.162 253.731C203.378 254.884 203.486 255.893 203.486 256.757C203.486 258.054 202.874 258.955 201.649 259.46C200.424 259.964 198.442 260.216 195.704 260.216H190.84C189.039 260.216 187.382 260 185.869 259.568C184.355 259.063 183.491 257.982 183.275 256.325L182.194 246.922H170.412L169.331 256.325C169.115 257.982 168.251 259.063 166.737 259.568C165.296 260 163.711 260.216 161.982 260.216H155.929ZM175.06 207.579L172.358 230.601H180.248L177.438 207.579C177.366 206.57 177.222 205.453 177.006 204.228C176.789 203.003 176.609 201.742 176.465 200.445H175.925C175.853 201.742 175.709 203.003 175.492 204.228C175.348 205.453 175.204 206.57 175.06 207.579ZM220.502 260.216C217.476 260.216 215.278 259.82 213.909 259.027C212.54 258.163 211.855 257.01 211.855 255.568V230.277L196.399 190.609C196.039 189.817 195.859 188.988 195.859 188.123C195.859 186.754 196.507 185.745 197.804 185.097C199.173 184.448 201.299 184.124 204.181 184.124H207.856C210.306 184.124 212.144 184.52 213.369 185.313C214.594 186.106 215.422 187.367 215.855 189.096L221.907 212.334L228.501 187.15C228.861 185.781 229.69 184.953 230.987 184.664C232.284 184.304 233.833 184.124 235.634 184.124H238.877C241.831 184.124 243.957 184.448 245.254 185.097C246.551 185.745 247.199 186.754 247.199 188.123C247.199 188.988 247.019 189.817 246.659 190.609L231.203 230.601V255.568C231.203 257.01 230.518 258.163 229.149 259.027C227.78 259.82 225.582 260.216 222.556 260.216H220.502ZM246.282 260.216C244.12 260.216 242.463 259.964 241.31 259.46C240.157 258.955 239.58 258.054 239.58 256.757C239.58 255.893 239.688 254.884 239.904 253.731L251.362 190.393C251.794 187.871 252.947 186.214 254.82 185.421C256.766 184.556 259.828 184.124 264.008 184.124H269.304C273.483 184.124 276.509 184.556 278.383 185.421C280.328 186.214 281.517 187.871 281.95 190.393L293.515 253.731C293.731 254.884 293.839 255.893 293.839 256.757C293.839 258.054 293.227 258.955 292.002 259.46C290.777 259.964 288.795 260.216 286.057 260.216H281.193C279.392 260.216 277.734 260 276.221 259.568C274.708 259.063 273.843 257.982 273.627 256.325L272.546 246.922H260.765L259.684 256.325C259.468 257.982 258.603 259.063 257.09 259.568C255.649 260 254.064 260.216 252.334 260.216H246.282ZM265.413 207.579L262.711 230.601H270.601L267.791 207.579C267.718 206.57 267.574 205.453 267.358 204.228C267.142 203.003 266.962 201.742 266.818 200.445H266.277C266.205 201.742 266.061 203.003 265.845 204.228C265.701 205.453 265.557 206.57 265.413 207.579ZM303.484 260C299.161 260 296.999 258.559 296.999 255.677V188.772C296.999 187.331 297.683 186.214 299.053 185.421C300.422 184.556 302.619 184.124 305.646 184.124H307.699C310.726 184.124 312.923 184.556 314.293 185.421C315.662 186.214 316.346 187.331 316.346 188.772V241.517H329.208C332.091 241.517 333.532 243.679 333.532 248.003V253.515C333.532 257.838 332.091 260 329.208 260H303.484ZM341.067 260.216C338.906 260.216 337.248 259.964 336.095 259.46C334.942 258.955 334.366 258.054 334.366 256.757C334.366 255.893 334.474 254.884 334.69 253.731L346.147 190.393C346.58 187.871 347.733 186.214 349.606 185.421C351.552 184.556 354.614 184.124 358.793 184.124H364.09C368.269 184.124 371.295 184.556 373.169 185.421C375.114 186.214 376.303 187.871 376.736 190.393L388.301 253.731C388.517 254.884 388.625 255.893 388.625 256.757C388.625 258.054 388.012 258.955 386.787 259.46C385.562 259.964 383.581 260.216 380.843 260.216H375.979C374.177 260.216 372.52 260 371.007 259.568C369.494 259.063 368.629 257.982 368.413 256.325L367.332 246.922H355.551L354.47 256.325C354.254 257.982 353.389 259.063 351.876 259.568C350.435 260 348.849 260.216 347.12 260.216H341.067ZM360.198 207.579L357.496 230.601H365.387L362.576 207.579C362.504 206.57 362.36 205.453 362.144 204.228C361.928 203.003 361.748 201.742 361.604 200.445H361.063C360.991 201.742 360.847 203.003 360.631 204.228C360.487 205.453 360.343 206.57 360.198 207.579ZM397.946 260C393.838 260 391.785 258.559 391.785 255.677V188.664C391.785 185.781 393.838 184.34 397.946 184.34H416.969C426.84 184.34 434.262 187.547 439.234 193.96C444.278 200.301 446.8 209.704 446.8 222.17C446.8 234.564 444.278 243.967 439.234 250.38C434.262 256.793 426.84 260 416.969 260H397.946ZM411.132 241.517H416.969C420.355 241.517 422.805 240.04 424.318 237.086C425.832 234.06 426.588 229.088 426.588 222.17C426.588 215.253 425.832 210.317 424.318 207.362C422.805 204.336 420.355 202.823 416.969 202.823H411.132V241.517ZM454.536 260.216C452.374 260.216 450.717 259.964 449.564 259.46C448.411 258.955 447.835 258.054 447.835 256.757C447.835 255.893 447.943 254.884 448.159 253.731L459.616 190.393C460.048 187.871 461.201 186.214 463.075 185.421C465.02 184.556 468.083 184.124 472.262 184.124H477.558C481.737 184.124 484.764 184.556 486.637 185.421C488.583 186.214 489.772 187.871 490.204 190.393L501.769 253.731C501.985 254.884 502.093 255.893 502.093 256.757C502.093 258.054 501.481 258.955 500.256 259.46C499.031 259.964 497.049 260.216 494.311 260.216H489.447C487.646 260.216 485.989 260 484.476 259.568C482.962 259.063 482.098 257.982 481.881 256.325L480.801 246.922H469.019L467.938 256.325C467.722 257.982 466.858 259.063 465.344 259.568C463.903 260 462.318 260.216 460.589 260.216H454.536ZM473.667 207.579L470.965 230.601H478.855L476.045 207.579C475.973 206.57 475.829 205.453 475.613 204.228C475.396 203.003 475.216 201.742 475.072 200.445H474.532C474.46 201.742 474.316 203.003 474.099 204.228C473.955 205.453 473.811 206.57 473.667 207.579Z" fill="#2A210D"/>
<path d="M114.23 346.012C109.708 346.012 107.447 344.425 107.447 341.252V267.473C107.447 264.3 109.708 262.713 114.23 262.713H133.151C141.798 262.713 148.145 264.736 152.191 268.782C156.237 272.749 158.26 278.421 158.26 285.799C158.26 289.924 157.308 293.335 155.404 296.033C153.579 298.73 151.159 300.872 148.145 302.459L148.264 302.935C151.992 304.125 154.928 306.425 157.07 309.836C159.212 313.168 160.283 317.413 160.283 322.569C160.283 327.012 159.291 331.018 157.308 334.588C155.404 338.158 152.429 340.974 148.383 343.037C144.416 345.02 139.339 346.012 133.151 346.012H114.23ZM127.558 294.962H133.151C136.8 294.962 138.625 292.859 138.625 288.655C138.625 286.433 138.189 284.847 137.316 283.895C136.443 282.943 135.055 282.467 133.151 282.467H127.558V294.962ZM127.558 326.258H133.151C135.293 326.258 136.84 325.703 137.792 324.592C138.823 323.402 139.339 321.538 139.339 318.999C139.339 316.461 138.823 314.636 137.792 313.525C136.84 312.335 135.293 311.74 133.151 311.74H127.558V326.258ZM173.686 346.25C170.354 346.25 167.934 345.814 166.427 344.941C164.92 343.989 164.166 342.72 164.166 341.133V267.592C164.166 266.005 164.92 264.776 166.427 263.903C167.934 262.951 170.354 262.475 173.686 262.475H175.947C179.279 262.475 181.698 262.951 183.206 263.903C184.713 264.776 185.467 266.005 185.467 267.592V341.133C185.467 342.72 184.713 343.989 183.206 344.941C181.698 345.814 179.279 346.25 175.947 346.25H173.686ZM224.841 346.964C214.052 346.964 205.841 343.354 200.209 336.135C194.655 328.916 191.879 318.325 191.879 304.363C191.879 290.4 194.655 279.809 200.209 272.59C205.841 265.371 214.052 261.761 224.841 261.761C235.71 261.761 243.881 265.371 249.355 272.59C254.908 279.809 257.685 290.4 257.685 304.363C257.685 318.325 254.908 328.916 249.355 336.135C243.881 343.354 235.71 346.964 224.841 346.964ZM224.841 326.615C228.57 326.615 231.267 324.91 232.933 321.498C234.599 318.008 235.432 312.296 235.432 304.363C235.432 296.35 234.599 290.638 232.933 287.227C231.267 283.815 228.57 282.11 224.841 282.11C221.033 282.11 218.296 283.815 216.63 287.227C214.964 290.638 214.131 296.35 214.131 304.363C214.131 312.296 214.964 318.008 216.63 321.498C218.296 324.91 221.033 326.615 224.841 326.615Z" fill="#44520C"/>
<path d="M270.416 346.012C265.894 346.012 263.633 344.425 263.633 341.252V267.473C263.633 264.3 265.894 262.713 270.416 262.713H289.337C297.984 262.713 304.331 264.736 308.376 268.782C312.422 272.749 314.445 278.421 314.445 285.799C314.445 289.924 313.493 293.335 311.589 296.033C309.765 298.73 307.345 300.872 304.331 302.459L304.45 302.935C308.178 304.125 311.113 306.425 313.255 309.836C315.397 313.168 316.468 317.413 316.468 322.569C316.468 327.012 315.477 331.018 313.493 334.588C311.589 338.158 308.614 340.974 304.569 343.037C300.602 345.02 295.525 346.012 289.337 346.012H270.416ZM283.744 294.962H289.337C292.986 294.962 294.811 292.859 294.811 288.655C294.811 286.433 294.374 284.847 293.502 283.895C292.629 282.943 291.241 282.467 289.337 282.467H283.744V294.962ZM283.744 326.258H289.337C291.479 326.258 293.026 325.703 293.978 324.592C295.009 323.402 295.525 321.538 295.525 318.999C295.525 316.461 295.009 314.636 293.978 313.525C293.026 312.335 291.479 311.74 289.337 311.74H283.744V326.258ZM327.135 346.012C322.375 346.012 319.995 344.425 319.995 341.252V267.592C319.995 266.005 320.748 264.776 322.256 263.903C323.763 262.951 326.183 262.475 329.515 262.475H331.776C335.107 262.475 337.527 262.951 339.034 263.903C340.542 264.776 341.295 266.005 341.295 267.592V325.663H355.456C358.63 325.663 360.216 328.043 360.216 332.803V338.872C360.216 343.632 358.63 346.012 355.456 346.012H327.135ZM375.891 346.25C372.559 346.25 370.139 345.814 368.632 344.941C367.124 343.989 366.371 342.72 366.371 341.133V267.592C366.371 266.005 367.124 264.776 368.632 263.903C370.139 262.951 372.559 262.475 375.891 262.475H378.152C381.483 262.475 383.903 262.951 385.41 263.903C386.918 264.776 387.671 266.005 387.671 267.592V341.133C387.671 342.72 386.918 343.989 385.41 344.941C383.903 345.814 381.483 346.25 378.152 346.25H375.891ZM417.526 346.25C414.194 346.25 411.775 345.814 410.267 344.941C408.76 343.989 408.006 342.72 408.006 341.133V283.062H396.939C393.766 283.062 392.179 280.682 392.179 275.922V269.853C392.179 265.093 393.766 262.713 396.939 262.713H439.66C442.833 262.713 444.42 265.093 444.42 269.853V275.922C444.42 280.682 442.833 283.062 439.66 283.062H428.593V341.133C428.593 342.72 427.839 343.989 426.332 344.941C424.825 345.814 422.405 346.25 419.073 346.25H417.526ZM450.424 346.012C448.837 346.012 447.647 345.219 446.854 343.632C446.14 342.045 445.664 340.3 445.426 338.396C445.188 336.413 445.069 334.906 445.069 333.874C445.069 333.002 445.188 332.208 445.426 331.494C445.664 330.78 446.179 329.67 446.973 328.162L471.01 283.062H452.209C449.035 283.062 447.449 280.682 447.449 275.922V269.853C447.449 265.093 449.035 262.713 452.209 262.713H492.192C493.779 262.713 494.929 263.506 495.643 265.093C496.436 266.68 496.952 268.425 497.19 270.329C497.428 272.233 497.547 273.74 497.547 274.851C497.547 275.724 497.428 276.517 497.19 277.231C497.031 277.866 496.516 278.976 495.643 280.563L471.605 325.663H492.787C495.96 325.663 497.547 328.043 497.547 332.803V338.872C497.547 343.632 495.96 346.012 492.787 346.012H450.424Z" fill="#729947"/>
<path d="M416.719 383.071C416.396 383.071 416.176 382.778 416.058 382.19C415.941 381.603 415.882 381.06 415.882 380.56C415.882 380.413 415.882 380.281 415.882 380.164C415.912 380.046 415.985 379.914 416.103 379.767L426.191 365.361C427.102 364.04 427.718 362.997 428.041 362.233C428.364 361.44 428.526 360.618 428.526 359.766C428.526 358.474 428.115 357.476 427.292 356.771C426.5 356.066 425.427 355.713 424.076 355.713C422.931 355.713 421.962 355.86 421.169 356.154C420.376 356.448 419.73 356.741 419.23 357.035C418.731 357.329 418.349 357.476 418.085 357.476C417.791 357.476 417.454 357.196 417.072 356.638C416.719 356.051 416.543 355.522 416.543 355.052C416.543 354.7 416.778 354.348 417.248 353.995C417.747 353.613 418.393 353.276 419.186 352.982C419.979 352.659 420.831 352.409 421.742 352.233C422.681 352.027 423.577 351.925 424.429 351.925C427.043 351.925 429.143 352.615 430.729 353.995C432.315 355.376 433.108 357.211 433.108 359.502C433.108 361.881 432.109 364.48 430.112 367.3L421.698 379.327H432.271C432.946 379.327 433.284 379.855 433.284 380.913V381.485C433.284 382.543 432.946 383.071 432.271 383.071H416.719ZM445.828 383.38C443.214 383.38 441.114 382.117 439.528 379.591C437.942 377.065 437.149 373.086 437.149 367.652C437.149 362.219 437.942 358.239 439.528 355.713C441.114 353.187 443.214 351.925 445.828 351.925C448.471 351.925 450.585 353.187 452.171 355.713C453.787 358.239 454.594 362.219 454.594 367.652C454.594 373.086 453.787 377.065 452.171 379.591C450.585 382.117 448.471 383.38 445.828 383.38ZM445.872 379.635C446.635 379.635 447.311 379.283 447.898 378.578C448.515 377.873 449 376.654 449.352 374.921C449.734 373.159 449.925 370.736 449.925 367.652C449.925 364.568 449.734 362.16 449.352 360.427C449 358.665 448.515 357.431 447.898 356.727C447.311 356.022 446.635 355.669 445.872 355.669C445.108 355.669 444.418 356.022 443.801 356.727C443.214 357.431 442.744 358.665 442.391 360.427C442.039 362.16 441.863 364.568 441.863 367.652C441.863 370.736 442.039 373.159 442.391 374.921C442.744 376.654 443.214 377.873 443.801 378.578C444.418 379.283 445.108 379.635 445.872 379.635ZM458.107 383.071C457.784 383.071 457.563 382.778 457.446 382.19C457.329 381.603 457.27 381.06 457.27 380.56C457.27 380.413 457.27 380.281 457.27 380.164C457.299 380.046 457.373 379.914 457.49 379.767L467.579 365.361C468.489 364.04 469.106 362.997 469.429 362.233C469.752 361.44 469.914 360.618 469.914 359.766C469.914 358.474 469.502 357.476 468.68 356.771C467.887 356.066 466.815 355.713 465.464 355.713C464.319 355.713 463.349 355.86 462.556 356.154C461.763 356.448 461.117 356.741 460.618 357.035C460.119 357.329 459.737 357.476 459.473 357.476C459.179 357.476 458.841 357.196 458.459 356.638C458.107 356.051 457.931 355.522 457.931 355.052C457.931 354.7 458.166 354.348 458.635 353.995C459.135 353.613 459.781 353.276 460.574 352.982C461.367 352.659 462.219 352.409 463.129 352.233C464.069 352.027 464.965 351.925 465.816 351.925C468.43 351.925 470.53 352.615 472.116 353.995C473.702 355.376 474.495 357.211 474.495 359.502C474.495 361.881 473.497 364.48 471.5 367.3L463.085 379.327H473.658C474.334 379.327 474.671 379.855 474.671 380.913V381.485C474.671 382.543 474.334 383.071 473.658 383.071H458.107ZM487.259 383.336C484.616 383.336 482.516 382.396 480.959 380.516C479.403 378.637 478.624 375.832 478.624 372.102C478.624 369.312 479.006 366.845 479.77 364.701C480.563 362.527 481.561 360.647 482.766 359.061C483.999 357.476 485.262 356.169 486.554 355.141C487.847 354.113 489.007 353.349 490.035 352.85C491.092 352.35 491.841 352.101 492.281 352.101C492.634 352.101 492.928 352.292 493.162 352.674C493.427 353.026 493.618 353.408 493.735 353.819C493.853 354.23 493.911 354.509 493.911 354.656C493.911 354.891 493.867 355.082 493.779 355.229C493.721 355.346 493.559 355.449 493.295 355.537C490.739 356.624 488.713 358.063 487.215 359.854C485.747 361.646 484.689 363.658 484.043 365.89C485.335 365.244 486.833 364.921 488.537 364.921C489.8 364.921 491.004 365.273 492.149 365.978C493.295 366.654 494.22 367.667 494.925 369.018C495.659 370.34 496.026 371.984 496.026 373.952C496.026 375.979 495.615 377.697 494.793 379.106C494 380.487 492.942 381.544 491.621 382.278C490.299 382.983 488.845 383.336 487.259 383.336ZM483.162 372.498C483.162 374.407 483.368 375.876 483.779 376.904C484.219 377.902 484.763 378.607 485.409 379.018C486.055 379.4 486.73 379.591 487.435 379.591C488.052 379.591 488.669 379.4 489.286 379.018C489.902 378.607 490.416 378.005 490.828 377.212C491.239 376.39 491.444 375.362 491.444 374.128C491.444 372.219 491.018 370.839 490.167 369.987C489.315 369.106 488.331 368.665 487.215 368.665C486.481 368.665 485.776 368.768 485.1 368.974C484.454 369.15 483.852 369.37 483.294 369.635C483.206 370.575 483.162 371.529 483.162 372.498Z" fill="#44520C"/>
<path d="M127.427 492.907L148.447 547.846H533.5L509.136 487.174L485.249 447.045L460.885 424.591H445.597L429.832 397.838L394.48 365.352L358.172 340.988L340.973 336.688L325.208 330V336.688H312.787L295.589 330L269.313 336.688H238.261L205.297 348.632L193.832 336.688H161.823L127.427 330H112.139L99.7181 336.688L82.042 330V334.3H76.3092L82.042 407.871L96.374 447.045L127.427 492.907Z" fill="#CBA597"/>
<path d="M127.427 492.907L148.447 547.846H533.5L509.136 487.174L485.249 447.045L460.885 424.591H445.597L429.832 397.838L394.48 365.352L358.172 340.988L340.973 336.688L325.208 330V336.688H312.787L295.589 330L269.313 336.688H238.261L205.297 348.632L193.832 336.688H161.823L127.427 330H112.139L99.7181 336.688L82.042 330V334.3H76.3092L82.042 407.871L96.374 447.045L127.427 492.907Z" fill="#CBA597"/>
<path d="M121.694 372.041L84.9084 353.887L148.925 547.846H336.196L303.233 464.721H212.941L158.957 449.433L121.694 372.041Z" fill="#7A4635" fill-opacity="0.7"/>
<path d="M227.273 429.369L233.961 462.332H299.411L246.86 386.373L203.864 397.838L233.961 417.903L227.273 429.369Z" fill="#987368" fill-opacity="0.7"/>
<path d="M335.718 524.437L348.617 547.369H458.496L419.799 528.737L394.002 524.437L364.86 507.239L335.718 524.437Z" fill="#987368" fill-opacity="0.5"/>
<path d="M337.629 416.47L286.034 367.741L323.297 385.417L347.662 409.304L361.516 461.854L374.415 450.867L411.2 525.871L388.269 514.883L381.103 490.518L356.261 461.854L337.629 416.47Z" fill="#7A4635" fill-opacity="0.7"/>
<defs>
<filter id="filter0_d_4_7" x="40" y="44" width="520" height="520" filterUnits="userSpaceOnUse" color-interpolation-filters="sRGB">
<feFlood flood-opacity="0" result="BackgroundImageFix"/>
<feColorMatrix in="SourceAlpha" type="matrix" values="0 0 0 0 0 0 0 0 0 0 0 0 0 0 0 0 0 0 127 0" result="hardAlpha"/>
<feOffset dy="4"/>
<feGaussianBlur stdDeviation="2"/>
<feComposite in2="hardAlpha" operator="out"/>
<feColorMatrix type="matrix" values="0 0 0 0 0 0 0 0 0 0 0 0 0 0 0 0 0 0 0.25 0"/>
<feBlend mode="normal" in2="BackgroundImageFix" result="effect1_dropShadow_4_7"/>
<feBlend mode="normal" in="SourceGraphic" in2="effect1_dropShadow_4_7" result="shape"/>
</filter>
<linearGradient id="paint0_linear_4_7" x1="300" y1="44" x2="300" y2="556" gradientUnits="userSpaceOnUse">
<stop stop-color="#7CAFF0"/>
<stop offset="1" stop-color="#E5F1FF"/>
</linearGradient>
</defs>
</svg>
